<svg width="31" height="30" viewBox="0 0 31 30" fill="none" xmlns="http://www.w3.org/2000/svg">
<path d="M29.6361 0H2.03606C1.37231 0 0.83606 0.53625 0.83606 1.2V28.8C0.83606 29.4638 1.37231 30 2.03606 30H29.6361C30.2998 30 30.8361 29.4638 30.8361 28.8V1.2C30.8361 0.53625 30.2998 0 29.6361 0ZM28.4361 27.6H21.5323V18.3825H25.4323L26.0173 13.8563H21.5323V10.965C21.5323 9.6525 21.8961 8.76 23.7748 8.76H26.1711V4.71C25.7548 4.65375 24.3336 4.53 22.6761 4.53C19.2186 4.53 16.8523 6.64125 16.8523 10.515V13.8525H12.9448V18.3787H16.8561V27.6H3.23606V2.4H28.4361V27.6Z" fill="white" fill-opacity="0.9"/>
</svg>
