<svg width="31" height="31" viewBox="0 0 31 31" fill="none" xmlns="http://www.w3.org/2000/svg">
<path d="M28.4248 0.259766H3.24731C1.91606 0.259766 0.83606 1.33977 0.83606 2.67102V27.8485C0.83606 29.1798 1.91606 30.2598 3.24731 30.2598H28.4248C29.7561 30.2598 30.8361 29.1798 30.8361 27.8485V2.67102C30.8361 1.33977 29.7561 0.259766 28.4248 0.259766ZM28.4248 27.8598C11.6323 27.856 3.23606 27.8523 3.23606 27.8485C3.23981 11.056 3.24356 2.65977 3.24731 2.65977C20.0398 2.66352 28.4361 2.66727 28.4361 2.67102C28.4323 19.4635 28.4286 27.8598 28.4248 27.8598ZM5.28356 11.506H9.73481V25.8235H5.28356V11.506ZM7.51106 9.54852C8.93231 9.54852 10.0911 8.39352 10.0911 6.96852C10.0911 6.6297 10.0243 6.29421 9.89467 5.98119C9.76501 5.66817 9.57497 5.38376 9.3354 5.14418C9.09582 4.9046 8.8114 4.71456 8.49838 4.58491C8.18536 4.45525 7.84987 4.38852 7.51106 4.38852C7.17225 4.38852 6.83676 4.45525 6.52374 4.58491C6.21072 4.71456 5.9263 4.9046 5.68672 5.14418C5.44715 5.38376 5.25711 5.66817 5.12745 5.98119C4.99779 6.29421 4.93106 6.6297 4.93106 6.96852C4.92731 8.39352 6.08231 9.54852 7.51106 9.54852ZM16.9723 18.7398C16.9723 16.8723 17.3286 15.0648 19.6423 15.0648C21.9223 15.0648 21.9561 17.1985 21.9561 18.8598V25.8235H26.4036V17.971C26.4036 14.116 25.5711 11.1498 21.0673 11.1498C18.9036 11.1498 17.4523 12.3385 16.8561 13.4635H16.7961V11.506H12.5248V25.8235H16.9723V18.7398Z" fill="white" fill-opacity="0.9"/>
</svg>
