<svg width="31" height="28" viewBox="0 0 31 28" fill="none" xmlns="http://www.w3.org/2000/svg">
<path d="M28.3165 0H3.35559C2.65247 0 2.05676 0.354776 1.56848 1.06433C1.0802 1.77388 0.83606 2.59259 0.83606 3.52047V24.4795C0.83606 25.4074 1.0802 26.2261 1.56848 26.9357C2.05676 27.6452 2.65247 28 3.35559 28H28.3165C29.0197 28 29.6154 27.6452 30.1036 26.9357C30.5919 26.2261 30.8361 25.4074 30.8361 24.4795V3.52047C30.8361 2.59259 30.5919 1.77388 30.1036 1.06433C29.6154 0.354776 29.0197 0 28.3165 0ZM25.9728 3.52047L15.8361 11.8713L5.69934 3.52047H25.9728ZM3.35559 24.4795V5.64912L15.1915 15.5556C15.2697 15.6647 15.4845 15.7193 15.8361 15.7193C16.1876 15.7193 16.4025 15.6647 16.4806 15.5556L28.3165 5.64912V24.4795H3.35559Z" fill="white"/>
</svg>
