<svg width="36" height="35" viewBox="0 0 36 35" fill="none" xmlns="http://www.w3.org/2000/svg">
<path d="M18.3204 1.46274e-06C8.66028 -0.00390479 0.83606 7.81641 0.83606 17.4688C0.83606 25.1016 5.73059 31.5899 12.547 33.9727C13.465 34.2032 13.3243 33.5508 13.3243 33.1055V30.0782C8.02356 30.6992 7.80872 27.1914 7.45325 26.6055C6.7345 25.3789 5.03528 25.0664 5.54309 24.4805C6.75012 23.8594 7.98059 24.6367 9.40637 26.7422C10.4376 28.2696 12.4493 28.0117 13.4689 27.7578C13.6915 26.8399 14.1681 26.0196 14.8243 25.3828C9.33215 24.3985 7.04309 21.0469 7.04309 17.0625C7.04309 15.1289 7.67981 13.3516 8.92981 11.918C8.13294 9.5547 9.00403 7.53126 9.12122 7.23048C11.3907 7.02735 13.7501 8.85548 13.9337 9.00001C15.2228 8.65235 16.6954 8.46876 18.3439 8.46876C20.0001 8.46876 21.4767 8.66016 22.7775 9.01173C23.2189 8.67579 25.4064 7.10548 27.5157 7.29688C27.629 7.59766 28.4806 9.57423 27.7306 11.9063C28.9962 13.3438 29.6407 15.1367 29.6407 17.0742C29.6407 21.0664 27.3361 24.4219 21.8282 25.3906C22.3 25.8546 22.6746 26.4079 22.9301 27.0182C23.1857 27.6285 23.317 28.2837 23.3165 28.9453V33.3399C23.3478 33.6914 23.3165 34.0391 23.9025 34.0391C30.8204 31.7071 35.8009 25.1719 35.8009 17.4727C35.8009 7.81641 27.9728 1.46274e-06 18.3204 1.46274e-06Z" fill="black"/>
</svg>
