<svg width="107" height="100" viewBox="0 0 107 100" fill="none" xmlns="http://www.w3.org/2000/svg">
<path d="M0.83606 49.5504C0.83606 57.9044 8.63784 65.7033 20.938 70.0992C18.4818 83.0286 20.4978 93.4496 27.2315 97.5103C34.1531 101.684 44.4646 98.7949 54.2516 89.8497C63.7917 98.4337 73.4336 101.812 80.1611 97.7398C87.0759 93.5542 89.1792 82.4263 86.6551 69.0933C99.4664 64.6644 106.633 58.0144 106.633 49.5504C106.633 41.39 98.8164 34.3302 86.6821 29.9624C89.3995 16.0784 87.097 5.91019 80.0845 1.68185C73.3237 -2.39453 63.5699 1.15845 53.8895 9.96729C43.8187 0.617401 34.1611 -2.23724 27.1554 2.00343C20.4012 6.09141 18.4738 16.7018 20.938 29.8706C9.05317 34.2034 0.83606 41.4226 0.83606 49.5504Z" fill="white"/>
<path d="M84.1109 34.2996C83.1362 33.9488 82.1262 33.6169 81.0863 33.303C81.2572 32.5737 81.4141 31.8537 81.5536 31.146C83.8431 19.5254 82.3461 10.1638 77.2344 7.08156C72.3329 4.12609 64.3168 7.20764 56.2209 14.5745C55.4424 15.2829 54.6617 16.0329 53.8814 16.819C53.3614 16.2989 52.8423 15.7963 52.3245 15.3156C43.8399 7.43846 35.3353 4.11892 30.2285 7.21009C25.3317 10.1741 23.8815 18.9749 25.9425 29.9879C26.1415 31.0516 26.3741 32.1379 26.6372 33.2424C25.4335 33.5996 24.2716 33.9805 23.1597 34.3857C13.2123 38.0119 6.8595 43.6952 6.8595 49.5902C6.8595 55.6786 13.6793 61.7854 24.0403 65.4883C24.8579 65.7805 25.7063 66.0568 26.5807 66.3191C26.2969 67.5136 26.05 68.6842 25.8428 69.8259C23.8777 80.6477 25.4123 89.2406 30.2961 92.1859C35.3406 95.2276 43.8067 92.1011 52.0506 84.5663C52.7022 83.9707 53.3561 83.3391 54.0112 82.677C54.8603 83.532 55.708 84.3411 56.5512 85.1C64.5364 92.2849 72.423 95.1862 77.3023 92.2326C82.3418 89.1822 83.9796 79.9514 81.8533 68.7206C81.6909 67.8628 81.5019 66.9865 81.2897 66.0947C81.8842 65.9109 82.4679 65.7212 83.037 65.5239C93.8082 61.7924 100.816 55.7599 100.816 49.5902C100.816 43.6738 94.2586 37.9523 84.1109 34.2996Z" fill="#53C1DE"/>
<path d="M81.7747 61.5405C81.2609 61.7183 80.7338 61.8902 80.1966 62.0569C79.0075 58.1207 77.4027 53.9352 75.4387 49.6109C77.3129 45.3895 78.8557 41.2575 80.0115 37.3469C80.9726 37.6378 81.9055 37.9445 82.8044 38.2682C91.499 41.3978 96.8026 46.025 96.8026 49.5904C96.8026 53.3882 91.0749 58.3183 81.7747 61.5405ZM77.9158 69.5358C78.856 74.502 78.9903 78.9919 78.3675 82.5019C77.8079 85.6558 76.6825 87.7586 75.2911 88.6008C72.33 90.3929 65.9979 88.0634 59.1689 81.9189C58.3861 81.2145 57.5975 80.4624 56.8065 79.6664C59.4539 76.6389 62.0999 73.1193 64.6822 69.2104C69.2244 68.789 73.5156 68.1 77.4072 67.1594C77.5988 67.9678 77.7691 68.7607 77.9158 69.5358ZM38.8915 88.2911C35.9986 89.3594 33.6945 89.39 32.3017 88.5503C29.338 86.7629 28.1059 79.8636 29.7866 70.6088C29.979 69.549 30.2082 68.4602 30.4722 67.3474C34.3211 68.2373 38.581 68.8776 43.134 69.2636C45.7337 73.0885 48.4561 76.6042 51.1995 79.6826C50.6001 80.2877 50.0031 80.8637 49.4094 81.4065C45.764 84.7383 42.1109 87.1022 38.8915 88.2911ZM25.3384 61.5172C20.757 59.8799 16.9735 57.7519 14.3801 55.4298C12.0497 53.3431 10.8732 51.2714 10.8732 49.5904C10.8732 46.0131 15.9739 41.4503 24.481 38.3489C25.5132 37.9726 26.5937 37.618 27.7151 37.2849C28.8908 41.2838 30.4331 45.4647 32.2943 49.6925C30.409 53.9831 28.8448 58.2307 27.6576 62.2765C26.8581 62.0362 26.0837 61.7834 25.3384 61.5172ZM29.8815 29.1821C28.1158 19.7465 29.2885 12.6286 32.2395 10.8425C35.3828 8.93977 42.3335 11.6527 49.6594 18.4542C50.1277 18.889 50.5978 19.344 51.0693 19.8147C48.3394 22.8797 45.6419 26.369 43.0652 30.1714C38.6464 30.5996 34.4165 31.2875 30.5274 32.2088C30.2829 31.1804 30.0663 30.17 29.8815 29.1821ZM70.4103 39.6461C69.4806 37.967 68.5261 36.3276 67.5531 34.733C70.5509 35.1293 73.4231 35.6553 76.1204 36.299C75.3106 39.0126 74.3013 41.8498 73.1132 44.7584C72.261 43.0666 71.3595 41.3607 70.4103 39.6461ZM53.8828 22.8141C55.7341 24.9113 57.5882 27.2528 59.4118 29.7933C57.5741 29.7025 55.7137 29.6553 53.8379 29.6553C51.9799 29.6553 50.1332 29.7015 48.3069 29.7907C50.1324 27.2738 52.0025 24.9354 53.8828 22.8141ZM37.2494 39.6752C36.3207 41.359 35.436 43.0556 34.5971 44.7553C33.4282 41.8568 32.4283 39.0066 31.6115 36.2545C34.2922 35.6273 37.1509 35.1144 40.1296 34.7257C39.1429 36.335 38.1806 37.9864 37.2494 39.6748V39.6752ZM40.2154 64.7546C37.1378 64.3956 34.2362 63.9091 31.5561 63.2991C32.386 60.4979 33.408 57.5868 34.6016 54.626C35.4427 56.3245 36.3309 58.0218 37.2653 59.7092H37.2654C38.2172 61.4284 39.2033 63.1124 40.2154 64.7546ZM53.9938 76.6627C52.0914 74.5165 50.1939 72.1425 48.3407 69.5888C50.1397 69.6626 51.9739 69.7004 53.8379 69.7004C55.753 69.7004 57.6462 69.6553 59.5096 69.5685C57.68 72.1682 55.8326 74.5459 53.9938 76.6627ZM73.1515 54.4751C74.4074 57.4679 75.466 60.3638 76.3066 63.1173C73.5824 63.7671 70.6411 64.2905 67.5421 64.6794C68.5174 63.0632 69.4802 61.3957 70.4263 59.6804C71.3835 57.945 72.2922 56.207 73.1515 54.4751ZM66.9495 57.5837C65.4808 60.2464 63.973 62.7883 62.4422 65.1877C59.6541 65.3962 56.7737 65.5035 53.8379 65.5035C50.9141 65.5035 48.0699 65.4086 45.3312 65.2227C43.7387 62.7918 42.1981 60.2424 40.7387 57.6066H40.7391C39.2835 54.978 37.9439 52.3271 36.7301 49.6912C37.9436 47.049 39.2797 44.3952 40.7268 41.7713L40.7265 41.7718C42.1775 39.1409 43.7046 36.6039 45.2823 34.1883C48.0766 33.9674 50.942 33.8522 53.8378 33.8522H53.8379C56.7468 33.8522 59.6158 33.9683 62.4093 34.1911C63.9629 36.5891 65.4797 39.1178 66.9363 41.7491C68.4096 44.4099 69.7629 47.0461 70.9868 49.6315C69.7666 52.2614 68.4163 54.9241 66.9495 57.5837ZM75.2295 10.7177C78.3758 12.6148 79.5994 20.2661 77.6226 30.2992C77.4965 30.9394 77.3545 31.5915 77.2003 32.2523C73.3022 31.3119 69.0693 30.612 64.6376 30.1773C62.0559 26.3331 59.3805 22.8384 56.6951 19.8128C57.4171 19.0866 58.1381 18.3941 58.856 17.7406C65.7926 11.4287 72.2757 8.93662 75.2295 10.7177Z" fill="white"/>
<path d="M53.8394 40.8179C58.473 40.8179 62.2294 44.7454 62.2294 49.5905C62.2294 54.4355 58.473 58.3632 53.8394 58.3632C49.2058 58.3632 45.4493 54.4355 45.4493 49.5905C45.4493 44.7454 49.2058 40.8179 53.8394 40.8179Z" fill="#53C1DE"/>
</svg>
