<svg width="104" height="100" viewBox="0 0 104 100" fill="none" xmlns="http://www.w3.org/2000/svg">
<path d="M95.6917 77.343C90.0885 77.2048 85.746 77.7594 82.1038 79.2833C81.0532 79.6989 79.3721 79.6993 79.2319 81.0155C79.7926 81.5701 79.8624 82.4707 80.3528 83.2327C81.1938 84.618 82.664 86.4892 83.995 87.4594C85.4656 88.5678 86.9367 89.6762 88.4772 90.6464C91.209 92.3094 94.2909 93.2792 96.9523 94.9422C98.4937 95.9115 100.034 97.1595 101.575 98.1987C102.345 98.7525 102.835 99.6536 103.816 100V99.7922C103.326 99.1685 103.186 98.2679 102.696 97.575C101.996 96.8821 101.295 96.2584 100.594 95.5655C98.5631 92.8636 96.0419 90.5078 93.3102 88.5678C91.0693 87.0434 86.166 84.9649 85.2556 82.4012C85.2556 82.4012 85.1853 82.3321 85.1154 82.263C86.6564 82.1243 88.4772 81.5701 89.9484 81.1541C92.3299 80.5304 94.5009 80.669 96.9523 80.0457C98.0728 79.7684 99.1937 79.422 100.314 79.0756V78.4522C99.0539 77.2047 98.1431 75.5421 96.8121 74.3642C93.2403 71.315 89.3178 68.3362 85.2556 65.8421C83.0841 64.4564 80.2825 63.5553 77.9713 62.3778C77.1312 61.9614 75.7299 61.754 75.24 61.0612C73.979 59.5368 73.2786 57.5278 72.3681 55.726C70.3377 51.9149 68.3758 47.689 66.6248 43.6705C65.3646 40.9682 64.5939 38.2659 63.053 35.7718C55.839 23.9932 47.9944 16.8568 35.9475 9.85863C33.356 8.4038 30.2745 7.78005 26.9826 7.01808C25.232 6.94853 23.4806 6.81031 21.7296 6.74076C20.6091 6.25567 19.4882 4.9395 18.5075 4.31575C14.516 1.82119 4.21966 -3.5826 1.27791 3.55378C-0.613246 8.05738 4.0795 12.4914 5.69031 14.7782C6.88151 16.3717 8.42203 18.1729 9.26259 19.9747C9.75296 21.1517 9.89268 22.3997 10.3831 23.6467C11.504 26.6946 12.5541 30.0902 14.0252 32.9312C14.7959 34.3861 15.636 35.9105 16.6168 37.2266C17.177 37.9886 18.1573 38.3354 18.3677 39.5825C17.3875 40.9682 17.3172 43.0468 16.7565 44.779C14.2352 52.6082 15.216 62.3083 18.7878 68.0589C19.9083 69.7906 22.5701 73.6022 26.142 72.1469C29.2938 70.8999 28.5934 66.9505 29.5038 63.4862C29.7143 62.6542 29.5741 62.1005 29.9942 61.5463C29.9945 61.6154 29.9942 61.6849 29.9942 61.6849C30.9749 63.6248 31.9552 65.4957 32.8656 67.4355C35.0371 70.8303 38.819 74.3641 41.9707 76.7201C43.6523 77.9667 44.9828 80.1148 47.084 80.8772V80.669H46.9438C46.5233 80.0453 45.8932 79.7684 45.333 79.2833C44.0724 78.0362 42.6711 76.5119 41.6909 75.1261C38.7495 71.2458 36.1575 66.9505 33.8463 62.516C32.7259 60.3683 31.7452 58.0124 30.8347 55.8647C30.4142 55.0328 30.4142 53.7861 29.7138 53.3706C28.6632 54.8945 27.1227 56.2112 26.352 58.082C25.022 61.0612 24.8814 64.7333 24.391 68.544C24.1111 68.6135 24.2508 68.544 24.1106 68.6826C21.8697 68.128 21.099 65.8421 20.2585 63.9017C18.1573 58.9826 17.8071 51.0838 19.6284 45.4027C20.1187 43.9474 22.2199 39.3747 21.3794 37.989C20.9593 36.6724 19.5581 35.9104 18.7878 34.8711C17.8774 33.5545 16.8966 31.8919 16.2666 30.4367C14.5854 26.5568 13.7449 22.261 11.924 18.3807C11.0834 16.579 9.61279 14.7087 8.42203 13.046C7.09155 11.1752 5.62044 9.85863 4.56983 7.64138C4.22008 6.87941 3.72927 5.63235 4.2895 4.80083C4.42967 4.24663 4.70956 4.03886 5.27023 3.9002C6.18066 3.13779 8.77221 4.10797 9.68262 4.52351C12.2742 5.56236 14.4452 6.53298 16.6167 7.98781C17.597 8.68067 18.6476 9.99728 19.9082 10.3437H21.3793C23.6207 10.8284 26.1419 10.4824 28.2431 11.1057C31.9556 12.2832 35.3169 14.0158 38.329 15.8866C47.5045 21.6372 55.0682 29.8133 60.1815 39.5825C61.0221 41.1756 61.3718 42.6313 62.1425 44.2939C63.6136 47.6891 65.4345 51.1534 66.9051 54.479C68.3758 57.7351 69.7766 61.0612 71.8778 63.7635C72.9288 65.2179 77.1307 65.9803 79.0219 66.7427C80.4227 67.3661 82.5942 67.9207 83.8548 68.6827C86.2359 70.137 88.6174 71.8005 90.8587 73.394C91.9796 74.2251 95.4812 75.9577 95.6917 77.343L95.6917 77.343Z" fill="#00546B"/>
</svg>
