<svg width="71" height="100" viewBox="0 0 71 100" fill="none" xmlns="http://www.w3.org/2000/svg">
<g clip-path="url(#clip0_1_767)">
<path d="M18.2114 100C27.7993 100 35.5808 92.5335 35.5808 83.3335V66.6668H18.2114C8.62351 66.6668 0.84201 74.1335 0.84201 83.3335C0.84201 92.5335 8.62351 100 18.2114 100Z" fill="#0ACF83"/>
<path d="M0.84201 49.9999C0.84201 40.7999 8.62351 33.3332 18.2114 33.3332H35.5808V66.6665H18.2114C8.62351 66.6665 0.84201 59.1999 0.84201 49.9999Z" fill="#A259FF"/>
<path d="M0.839966 16.6667C0.839966 7.46667 8.62146 7.62939e-06 18.2094 7.62939e-06H35.5788V33.3333H18.2094C8.62146 33.3333 0.839966 25.8667 0.839966 16.6667Z" fill="#F24E1E"/>
<path d="M35.5818 7.62939e-06H52.9512C62.5392 7.62939e-06 70.3206 7.46667 70.3206 16.6667C70.3206 25.8667 62.5392 33.3333 52.9512 33.3333H35.5818V7.62939e-06Z" fill="#FF7262"/>
<path d="M70.3206 49.9999C70.3206 59.1999 62.5391 66.6665 52.9512 66.6665C43.3633 66.6665 35.5818 59.1999 35.5818 49.9999C35.5818 40.7999 43.3633 33.3332 52.9512 33.3332C62.5391 33.3332 70.3206 40.7999 70.3206 49.9999Z" fill="#1ABCFE"/>
</g>
<defs>
<clipPath id="clip0_1_767">
<rect width="69.4915" height="100" fill="white" transform="translate(0.83606)"/>
</clipPath>
</defs>
</svg>
