<svg width="87" height="100" viewBox="0 0 87 100" fill="none" xmlns="http://www.w3.org/2000/svg">
<path d="M43.5747 99.8144C42.2474 99.8144 41.0086 99.4476 39.8583 98.8057L28.0897 91.5615C26.32 90.5528 27.2048 90.186 27.7357 90.0026C30.1248 89.1774 30.5673 88.9939 33.0449 87.5268C33.3103 87.3434 33.6643 87.4351 33.9297 87.6185L42.9553 93.2121C43.3092 93.3955 43.7517 93.3955 44.0171 93.2121L79.3229 72.0296C79.6769 71.8462 79.8538 71.4794 79.8538 71.0209V28.7477C79.8538 28.2892 79.6769 27.9224 79.3229 27.739L44.0171 6.64818C43.6632 6.46479 43.2207 6.46479 42.9553 6.64818L7.64946 27.739C7.29552 27.9224 7.11855 28.3809 7.11855 28.7477V71.0209C7.11855 71.3877 7.29552 71.8462 7.64946 72.0296L17.2944 77.8067C22.5151 80.5576 25.789 77.3482 25.789 74.1387V32.4156C25.789 31.8654 26.2315 31.3152 26.8509 31.3152H31.3636C31.8946 31.3152 32.4255 31.7737 32.4255 32.4156V74.1387C32.4255 81.3829 28.6206 85.6011 21.9842 85.6011C19.949 85.6011 18.3562 85.6011 13.8435 83.3086L4.55246 77.8067C2.25183 76.4312 0.83606 73.8636 0.83606 71.1126V28.8394C0.83606 26.0884 2.25183 23.5208 4.55246 22.1453L39.8583 0.96284C42.0704 -0.320947 45.0789 -0.320947 47.2911 0.96284L82.5969 22.1453C84.8975 23.5208 86.3133 26.0884 86.3133 28.8394V71.1126C86.3133 73.8636 84.8975 76.4312 82.5969 77.8067L47.2911 98.9892C46.1408 99.5393 44.8135 99.8144 43.5747 99.8144ZM54.4584 70.7458C38.9734 70.7458 35.7879 63.4099 35.7879 57.1744C35.7879 56.6242 36.2304 56.074 36.8498 56.074H41.451C41.9819 56.074 42.4244 56.4408 42.4244 56.991C43.1323 61.851 45.1674 64.2352 54.5469 64.2352C61.9797 64.2352 65.1652 62.4929 65.1652 58.3665C65.1652 55.9823 64.2803 54.24 52.6887 53.0479C43.0438 52.0392 37.0267 49.8384 37.0267 41.8606C37.0267 34.433 43.0438 30.0314 53.1311 30.0314C64.4573 30.0314 70.0319 34.0662 70.7398 42.8693C70.7398 43.1444 70.6513 43.4195 70.4743 43.6946C70.2974 43.878 70.0319 44.0614 69.7665 44.0614H65.1652C64.7228 44.0614 64.2803 43.6946 64.1919 43.2361C63.13 38.1927 60.387 36.5421 53.1311 36.5421C44.9905 36.5421 44.0171 39.4765 44.0171 41.6772C44.0171 44.3365 45.1674 45.1618 56.1397 46.629C67.0234 48.0962 72.1556 50.2052 72.1556 58.0914C72.0671 66.1609 65.6961 70.7458 54.4584 70.7458Z" fill="#539E43"/>
</svg>
