<svg width="42" height="98" viewBox="0 0 42 98" fill="none" xmlns="http://www.w3.org/2000/svg">
<path d="M40.9036 39.0626C36.0191 16.4383 25.8254 10.4137 23.2388 6.15511C21.8329 3.8385 20.3994 0.317871 20.3994 0.317871C20.2593 2.32456 20.0108 3.59546 18.3798 5.12055C15.1136 8.1774 1.23319 20.0525 0.0672876 45.7605C-1.02004 69.7292 16.8444 84.5118 19.2187 86.0392C21.0323 86.9756 23.2537 86.057 24.3155 85.1986C32.9249 78.9912 44.7029 62.4405 40.893 39.0626" fill="#10AA50"/>
<path d="M21.14 73.272C20.6919 79.2073 20.3691 82.661 19.2286 86.0457C19.2286 86.0457 19.9804 91.6934 20.5028 97.6778H22.3653C22.8099 93.4629 23.4885 89.2789 24.3977 85.1471C21.9852 83.9052 21.2313 78.4782 21.14 73.272Z" fill="#B8C4C2"/>
<path d="M24.3955 85.1514C21.9575 83.9697 21.2525 78.4335 21.1442 73.2718C21.7448 64.7618 21.9185 56.2246 21.6645 47.6955C21.537 43.2205 21.7282 6.24173 20.6154 0.828125C21.0656 1.88721 22.1529 4.37551 23.2402 6.15254C25.8375 10.4134 36.0227 16.4379 40.9029 39.0645C44.7064 62.3822 32.9985 78.9039 24.3955 85.1514Z" fill="#12924F"/>
</svg>
