<svg width="98" height="100" viewBox="0 0 98 100" fill="none" xmlns="http://www.w3.org/2000/svg">
<g clip-path="url(#clip0_1_759)">
<path d="M97.078 83.3333C97.078 92.5 89.8599 100 81.0377 100H16.8764C8.05421 100 0.83606 92.5 0.83606 83.3333V16.6667C0.83606 7.5 8.05421 0 16.8764 0H81.0377C89.8599 0 97.078 7.5 97.078 16.6667V83.3333Z" fill="#563D7C"/>
<path d="M26.9879 21.7323H54.2721C59.3044 21.7323 63.3459 22.9251 66.381 25.327C69.4161 27.729 70.9415 31.3401 70.9415 36.1931C70.9415 39.1342 70.2496 41.6506 68.8657 43.7421C67.4818 45.8336 65.5004 47.4676 62.9213 48.6114V48.7748C66.381 49.5427 69.0072 51.2421 70.7842 53.8728C72.5613 56.5199 73.4576 59.8205 73.4576 63.8074C73.4576 66.095 73.0645 68.2355 72.2782 70.2127C71.4919 72.2061 70.2653 73.9218 68.5826 75.3597C66.9 76.7976 64.7613 77.9414 62.135 78.7911C59.5088 79.6408 56.3951 80.0656 52.7782 80.0656H26.9879V21.7323ZM36.8165 46.1604H52.8568C55.2157 46.1604 57.1814 45.4741 58.754 44.0689C60.3266 42.6636 61.1129 40.6702 61.1129 38.0558C61.1129 35.1146 60.4052 33.0395 58.9899 31.8466C57.5746 30.6538 55.5302 30.0493 52.8568 30.0493H36.8165V46.1604ZM36.8165 71.7323H54.1935C57.1814 71.7323 59.5088 70.9316 61.1443 69.314C62.7955 67.7127 63.629 65.4251 63.629 62.4839C63.629 59.5917 62.8113 57.3859 61.1443 55.8172C59.4774 54.2486 57.1814 53.497 54.1935 53.497H36.8165V71.7323Z" fill="white"/>
</g>
<defs>
<clipPath id="clip0_1_759">
<rect width="96.242" height="100" fill="white" transform="translate(0.83606)"/>
</clipPath>
</defs>
</svg>
