<svg width="101" height="100" viewBox="0 0 101 100" fill="none" xmlns="http://www.w3.org/2000/svg">
<path d="M0.83606 50V100H50.8361H100.836V50V0H50.8361H0.83606V50Z" fill="#007ACC"/>
<path d="M22.9493 50.3318L22.9175 54.427L29.4255 54.427H35.9334V72.9191V91.4111H40.5366H45.1398V72.9191L45.1398 54.427H51.6477H58.1556V50.4111C58.1556 48.1889 58.108 46.3318 58.0445 46.2841C57.9969 46.2207 50.0763 46.1889 40.4731 46.2048L22.9969 46.2524L22.9493 50.3318Z" fill="white"/>
<path d="M81.5266 46.1362C84.0663 46.7711 86.0028 47.8981 87.7806 49.7393C88.7012 50.7235 90.0663 52.5171 90.1774 52.9457C90.2091 53.0727 85.8599 55.9933 83.225 57.6282C83.1298 57.6917 82.7488 57.279 82.3203 56.6441C81.0345 54.7711 79.6853 53.9616 77.6218 53.8187C74.5901 53.6124 72.6377 55.1997 72.6536 57.8505C72.6536 58.6282 72.7647 59.0886 73.0822 59.7235C73.7488 61.1044 74.9869 61.9298 78.8758 63.6124C86.0345 66.6917 89.098 68.7235 91.0028 71.6124C93.1298 74.8346 93.606 79.9774 92.1615 83.8028C90.5742 87.9616 86.6377 90.787 81.098 91.7235C79.3837 92.0251 75.3203 91.9774 73.479 91.6441C69.4631 90.9298 65.6536 88.9457 63.3044 86.3425C62.3837 85.3266 60.5901 82.6759 60.7012 82.4854C60.7488 82.4219 61.1615 82.1679 61.6218 81.8981C62.0663 81.6441 63.7488 80.6759 65.3361 79.7552L68.2091 78.0885L68.8123 78.9774C69.6536 80.2631 71.4949 82.0251 72.606 82.6124C75.7964 84.2949 80.1774 84.0568 82.3361 82.1203C83.2568 81.279 83.6377 80.406 83.6377 79.1203C83.6377 77.9616 83.4949 77.4536 82.8917 76.5806C82.1139 75.4695 80.5266 74.533 76.0187 72.5806C70.8599 70.3584 68.6377 68.9774 66.606 66.787C65.4314 65.5171 64.3203 63.4854 63.8599 61.787C63.479 60.3743 63.3837 56.8346 63.6853 55.406C64.7488 50.4219 68.5107 46.9457 73.9393 45.9139C75.7012 45.5806 79.7964 45.7076 81.5266 46.1362Z" fill="white"/>
</svg>
