<svg width="128" height="100" viewBox="0 0 128 100" fill="none" xmlns="http://www.w3.org/2000/svg">
<path d="M109.81 57.4487C105.383 57.475 101.549 58.5946 98.3338 60.2615C97.1466 57.7875 95.9594 55.6258 95.7617 54.0115C95.5391 52.1365 95.2671 50.9904 95.5392 48.7511C95.811 46.5112 97.0476 43.3341 97.0476 43.0737C97.0227 42.8393 96.7753 41.6935 94.228 41.6675C91.6808 41.6414 89.4793 42.1883 89.2319 42.8914C88.9846 43.5946 88.4899 45.2091 88.1684 46.8758C87.7232 49.3237 83.0734 57.9956 80.4269 62.5529C79.5612 60.782 78.8192 59.2196 78.6706 57.9693C78.4482 56.0946 78.1759 54.9485 78.4482 52.7091C78.7203 50.4693 79.957 47.2925 79.957 47.0321C79.9322 46.7977 79.6849 45.6518 77.1376 45.6258C74.5899 45.5998 72.3888 46.1466 72.1415 46.8498C71.8942 47.5529 71.6221 49.2196 71.078 50.8341C70.5583 52.4487 64.375 66.9279 62.7674 70.7039C61.9512 72.631 61.2342 74.1675 60.7145 75.2091C60.1951 76.2508 60.6898 75.2873 60.6403 75.3914C60.1951 76.2768 59.9478 76.7716 59.9478 76.7716V76.7979C59.6015 77.449 59.2305 78.0737 59.0571 78.0737C58.9335 78.0737 58.6861 76.3289 59.1066 73.9333C60.0217 68.9071 62.2477 61.0688 62.2232 60.7823C62.2232 60.6521 62.6435 59.2716 60.7885 58.5688C58.9829 57.8656 58.3401 59.0375 58.1915 59.0375C58.0431 59.0375 57.9194 59.4542 57.9194 59.4542C57.9194 59.4542 59.9228 50.6263 54.0858 50.6263C50.4252 50.6263 45.3797 54.819 42.8816 58.6472C41.2987 59.5586 37.935 61.4854 34.3734 63.543C33.0131 64.3242 31.6033 65.1576 30.2677 65.9128L29.9958 65.5998C22.9221 57.6571 9.83827 52.0321 10.3824 41.355C10.5803 37.4748 11.8664 27.2404 35.5116 14.8446C54.8777 4.68832 70.3855 7.47477 73.0811 13.6727C76.9148 22.5269 64.7955 38.9852 44.6629 41.355C36.9956 42.2664 32.9638 39.1414 31.95 37.9696C30.8865 36.7456 30.7381 36.6935 30.3424 36.9279C29.6993 37.2925 30.095 38.3862 30.3424 39.0373C30.936 40.6779 33.4093 43.5946 37.6139 45.0529C41.2989 46.3289 50.3021 47.0321 61.1847 42.605C73.3782 37.631 82.9005 23.8289 80.1056 12.2925C77.2613 0.547694 58.7608 -3.30647 41.2744 3.22998C30.8615 7.13623 19.5832 13.23 11.4707 21.2248C1.8247 30.7039 0.291239 38.9852 0.934303 42.4227C3.18527 54.6883 19.2369 62.6831 25.6675 68.5946C25.346 68.7766 25.0492 68.9589 24.7771 69.1154C21.5618 70.7818 9.31887 77.5268 6.25195 84.662C2.7893 92.7349 6.79608 98.5425 9.46727 99.3237C17.7282 101.746 26.1869 97.3966 30.7626 90.2352C35.3132 83.0737 34.7694 73.7768 32.667 69.5321L32.5926 69.3758L35.1154 67.8133C36.748 66.7977 38.3557 65.8602 39.7652 65.0526C38.974 67.3182 38.4049 70.0005 38.1083 73.9068C37.7621 78.4904 39.5429 84.4276 41.8925 86.7714C42.9313 87.7867 44.168 87.813 44.9347 87.813C47.6554 87.813 48.892 85.443 50.2524 82.6047C51.9342 79.1412 53.4182 75.1307 53.4182 75.1307C53.4182 75.1307 51.5632 85.9901 56.6335 85.9901C58.4885 85.9901 60.3435 83.4641 61.1844 82.162V82.188C61.1844 82.188 61.2339 82.1099 61.3328 81.9276C61.4366 81.7661 61.5356 81.6011 61.6296 81.4331V81.381C62.3716 80.0268 64.0288 76.9279 66.5021 71.7977C69.6924 65.1831 72.7596 56.9018 72.7596 56.9018C72.7596 56.9018 73.0564 58.9331 73.9715 62.2664C74.5154 64.2458 75.7026 66.4071 76.6177 68.5164C75.8757 69.6102 75.4305 70.2354 75.4305 70.2354L75.4553 70.2615C74.8619 71.0948 74.1939 71.9805 73.5016 72.8656C70.9788 76.0427 67.9613 79.6628 67.5656 80.7044C67.0957 81.9281 67.1946 82.8396 68.1097 83.569C68.7775 84.0899 69.9647 84.1938 71.2261 84.0899C73.5016 83.9333 75.0845 83.3347 75.876 82.9698C77.1126 82.5011 78.5224 81.7979 79.8828 80.7563C82.3561 78.8294 83.8648 76.0951 83.7164 72.4492C83.6422 70.444 83.0239 68.4649 82.2572 66.5899C82.4798 66.2513 82.7026 65.9125 82.925 65.5482C86.8328 59.5323 89.8503 52.918 89.8503 52.918C89.8503 52.918 90.1471 54.9492 91.0622 58.2826C91.5319 59.9753 92.472 61.8245 93.3129 63.6474C89.6524 66.7985 87.3522 70.4443 86.5607 72.8401C85.1015 77.2672 86.2392 79.2724 88.391 79.7412C89.3553 79.9495 90.7407 79.4808 91.7792 79.012C93.0653 78.5693 94.6235 77.8138 96.0583 76.6943C98.5316 74.7672 100.906 72.0849 100.782 68.4651C100.708 66.7985 100.288 65.1578 99.7188 63.5953C102.835 62.2412 106.866 61.4599 111.986 62.111C122.993 63.4651 125.169 70.7047 124.749 73.7255C124.329 76.7466 122.028 78.413 121.261 78.9339C120.495 79.4287 120.247 79.6112 120.322 79.9755C120.421 80.5227 120.767 80.4964 121.435 80.3925C122.35 80.236 127.222 77.9185 127.42 72.3458C127.717 65.1833 121.261 57.3709 109.81 57.4487ZM24.9255 87.5789C21.2898 91.7716 16.17 93.3602 13.9934 92.006C11.6438 90.5737 12.5587 84.4018 17.0356 79.9487C19.7563 77.2404 23.2931 74.7404 25.6181 73.2039C26.1375 72.8654 26.9289 72.3709 27.8688 71.7716C28.0172 71.6677 28.1161 71.6154 28.1161 71.6154C28.2893 71.5112 28.4871 71.381 28.685 71.2508C30.3421 77.605 28.7592 83.1779 24.9255 87.5789ZM51.5138 68.5425C50.2524 71.7977 47.5812 80.1571 45.9735 79.6883C44.5882 79.2977 43.7475 72.9696 45.7012 66.7196C46.6905 63.5682 48.7929 59.8185 50.0295 58.3599C52.0332 56.0162 54.2094 55.2349 54.7538 56.1985C55.3969 57.4487 52.3052 66.5112 51.5138 68.5425ZM73.4521 79.5841C72.908 79.8708 72.4133 80.0789 72.1907 79.9229C72.0176 79.8188 72.4131 79.4281 72.4131 79.4281C72.4131 79.4281 75.1585 76.3292 76.2467 74.8969C76.8651 74.0638 77.6071 73.1003 78.3985 72.0063V72.3188C78.3988 76.0685 74.9856 78.5685 73.4521 79.5841ZM90.3694 75.5216C89.9737 75.2091 90.0234 74.2456 91.3587 71.2248C91.8784 70.0268 93.0653 68.0216 95.1182 66.1206C95.3655 66.9018 95.5142 67.6568 95.4892 68.3602C95.4647 73.0477 92.2989 74.7925 90.3694 75.5216Z" fill="#CF649A"/>
</svg>
