<svg width="98" height="100" viewBox="0 0 98 100" fill="none" xmlns="http://www.w3.org/2000/svg">
<path d="M0.83606 0H97.078V100H0.83606V0Z" fill="#F7DF1E"/>
<path d="M26.1418 83.5671L33.5069 78.9358C34.9278 81.5534 36.2203 83.7682 39.3207 83.7682C42.2926 83.7682 44.1663 82.5602 44.1663 77.8618V45.9095H53.2106V77.9947C53.2106 87.728 47.7196 92.1583 39.7084 92.1583C32.4733 92.1583 28.2735 88.2649 26.1417 83.5663" fill="black"/>
<path d="M58.1228 82.5603L65.487 78.13C67.4256 81.4195 69.9452 83.8359 74.4026 83.8359C78.15 83.8359 80.5398 81.889 80.5398 79.204C80.5398 75.9819 78.085 74.8406 73.9502 72.9617L71.6898 71.9541C65.1644 69.0682 60.8358 65.4435 60.8358 57.7909C60.8358 50.7427 66.004 45.3724 74.0798 45.3724C79.8295 45.3724 83.9641 47.4535 86.9356 52.8908L79.8937 57.5894C78.3431 54.7032 76.6639 53.5622 74.0799 53.5622C71.4311 53.5622 69.7513 55.3075 69.7513 57.5894C69.7513 60.4087 71.4311 61.5502 75.3069 63.2955L77.5679 64.3024C85.2558 67.726 89.5844 71.2162 89.5844 79.0697C89.5844 87.5281 83.1887 92.1593 74.5966 92.1593C66.1982 92.1593 60.7713 87.9978 58.123 82.5603" fill="black"/>
</svg>
