<svg width="31" height="30" viewBox="0 0 31 30" fill="none" xmlns="http://www.w3.org/2000/svg">
<path d="M15.8361 0C11.7584 0 11.2502 0.01969 9.65435 0.0871984C8.05196 0.165958 6.96808 0.414427 6.01171 0.785723C5.01076 1.1636 4.10428 1.75523 3.35544 2.51938C2.58916 3.26647 1.9972 4.17346 1.62178 5.17565C1.25049 6.13202 1.00202 7.2159 0.923258 8.81829C0.851061 10.4151 0.83606 10.9223 0.83606 15C0.83606 19.0777 0.85575 19.5859 0.923258 21.1817C1.00202 22.7794 1.25049 23.868 1.62178 24.8244C1.99966 25.8253 2.59129 26.7318 3.35544 27.4806C4.10253 28.2469 5.00952 28.8389 6.01171 29.2143C6.96808 29.5809 8.05665 29.834 9.65435 29.9128C11.2511 29.985 11.7584 30 15.8361 30C19.9138 30 20.4219 29.9803 22.0178 29.9128C23.6155 29.834 24.704 29.5799 25.6604 29.2143C26.6614 28.8364 27.5678 28.2448 28.3167 27.4806C29.0839 26.7343 29.6761 25.8271 30.0503 24.8244C30.4169 23.868 30.6701 22.7794 30.7489 21.1817C30.8211 19.5849 30.8361 19.0777 30.8361 15C30.8361 10.9223 30.8164 10.4141 30.7489 8.81829C30.6701 7.22059 30.416 6.12639 30.0503 5.17565C29.6725 4.17471 29.0808 3.26822 28.3167 2.51938C27.5704 1.75212 26.6632 1.16 25.6604 0.785723C24.704 0.414427 23.6155 0.165958 22.0178 0.0871984C20.421 0.0150019 19.9138 0 15.8361 0ZM15.8361 2.70034C19.8406 2.70034 20.3188 2.72003 21.9015 2.78754C23.3614 2.85598 24.1565 3.09976 24.6844 3.30604C25.337 3.54693 25.9276 3.93035 26.4133 4.42837C26.9105 4.91201 27.2925 5.50133 27.531 6.15264C27.7372 6.68052 27.981 7.47562 28.0495 8.93549C28.117 10.5182 28.1367 10.9973 28.1367 15.0009C28.1367 19.0046 28.117 19.4837 28.0438 21.0664C27.9651 22.5263 27.7213 23.3214 27.516 23.8492C27.2319 24.5534 26.9149 25.0456 26.3918 25.5782C25.9044 26.0731 25.3141 26.4547 24.6628 26.6958C24.1415 26.9021 23.3351 27.1459 21.8696 27.2143C20.2785 27.2818 19.8097 27.3015 15.7948 27.3015C11.7799 27.3015 11.3121 27.2818 9.71905 27.2087C8.25918 27.13 7.45376 26.8862 6.92588 26.6808C6.21329 26.3967 5.7248 26.0798 5.20161 25.5566C4.67373 25.0288 4.33806 24.5262 4.07928 23.8277C3.86925 23.3064 3.62922 22.5 3.5514 21.0345C3.49795 19.4621 3.47264 18.9746 3.47264 14.9784C3.47264 10.9842 3.49795 10.4957 3.5514 8.90361C3.62922 7.43812 3.86925 6.63364 4.07928 6.11045C4.33806 5.39692 4.67466 4.90936 5.20161 4.38148C5.72386 3.85923 6.21329 3.52169 6.92588 3.25728C7.45376 3.05194 8.23949 2.80816 9.70498 2.73503C11.2961 2.67783 11.7649 2.65721 15.7742 2.65721L15.8361 2.70034ZM15.8361 7.30123C14.8247 7.30086 13.8232 7.49979 12.8887 7.88665C11.9543 8.27351 11.1052 8.84072 10.3901 9.55587C9.67491 10.271 9.1077 11.1201 8.72083 12.0545C8.33397 12.989 8.13504 13.9905 8.13541 15.0019C8.13504 16.0132 8.33397 17.0148 8.72083 17.9492C9.1077 18.8837 9.67491 19.7327 10.3901 20.4479C11.1052 21.163 11.9543 21.7302 12.8887 22.1171C13.8232 22.504 14.8247 22.7029 15.8361 22.7025C16.8474 22.7029 17.849 22.504 18.7834 22.1171C19.7179 21.7302 20.5669 21.163 21.2821 20.4479C21.9972 19.7327 22.5644 18.8837 22.9513 17.9492C23.3381 17.0148 23.5371 16.0132 23.5367 15.0019C23.5371 13.9905 23.3381 12.989 22.9513 12.0545C22.5644 11.1201 21.9972 10.271 21.2821 9.55587C20.5669 8.84072 19.7179 8.27351 18.7834 7.88665C17.849 7.49979 16.8474 7.30086 15.8361 7.30123ZM15.8361 20.0022C13.072 20.0022 10.8357 17.766 10.8357 15.0019C10.8357 12.2378 13.072 10.0016 15.8361 10.0016C18.6002 10.0016 20.8364 12.2378 20.8364 15.0019C20.8364 17.766 18.6002 20.0022 15.8361 20.0022ZM25.6473 6.99369C25.6468 7.47156 25.4566 7.92968 25.1185 8.26742C24.7804 8.60514 24.3221 8.79485 23.8442 8.79485C23.608 8.79485 23.374 8.74831 23.1557 8.65789C22.9374 8.56746 22.739 8.43493 22.572 8.26785C22.4049 8.10077 22.2723 7.90242 22.1819 7.68412C22.0915 7.46582 22.045 7.23185 22.045 6.99556C22.045 6.75928 22.0915 6.5253 22.1819 6.307C22.2723 6.08871 22.4049 5.89035 22.572 5.72327C22.739 5.55619 22.9374 5.42366 23.1557 5.33324C23.374 5.24281 23.608 5.19627 23.8442 5.19627C24.8353 5.19627 25.6473 6.00263 25.6473 6.99369Z" fill="white" fill-opacity="0.9"/>
</svg>
