<svg width="40" height="39" viewBox="0 0 40 39" fill="none" xmlns="http://www.w3.org/2000/svg">
<path d="M20.0361 0C9.43206 0 0.83606 8.59604 0.83606 19.2001C0.83606 29.8041 9.43206 38.4002 20.0361 38.4002C30.6401 38.4002 39.2361 29.8041 39.2361 19.2001C39.2361 8.59604 30.6401 0 20.0361 0ZM15.3361 27.1581H11.4481V14.6461H15.3361V27.1581ZM13.3681 13.1101C12.1401 13.1101 11.3461 12.2401 11.3461 11.1641C11.3461 10.066 12.1641 9.22204 13.4181 9.22204C14.6721 9.22204 15.4401 10.066 15.4641 11.1641C15.4641 12.2401 14.6721 13.1101 13.3681 13.1101ZM29.5361 27.1581H25.6481V20.2241C25.6481 18.6101 25.0841 17.5141 23.6781 17.5141C22.6041 17.5141 21.9661 18.2561 21.6841 18.9701C21.5801 19.2241 21.5541 19.5841 21.5541 19.9421V27.1561H17.6641V18.6361C17.6641 17.0741 17.6141 15.7681 17.5621 14.6441H20.9401L21.1181 16.3821H21.1961C21.7081 15.5661 22.9621 14.3621 25.0601 14.3621C27.6181 14.3621 29.5361 16.0761 29.5361 19.7601V27.1581Z" fill="black"/>
</svg>
