<svg width="38" height="36" viewBox="0 0 38 36" fill="none" xmlns="http://www.w3.org/2000/svg">
<path d="M18.6967 7.36697C21.5215 7.36697 24.1831 8.61918 26.1337 10.5767V10.5825C26.1337 9.64247 26.7662 8.93137 27.6403 8.93137H27.8623C29.2417 8.93137 29.5181 10.2322 29.5181 10.6426L29.5239 25.2518C29.4279 26.2092 30.5124 26.7041 31.1149 26.089C33.4563 23.6805 36.2625 13.6951 29.6568 7.91387C23.4963 2.51765 15.228 3.40912 10.8319 6.4385C6.15951 9.66675 3.17292 16.7973 6.07395 23.499C9.24208 30.8053 18.299 32.9848 23.6894 30.8111C26.4182 29.7092 27.6762 33.393 24.8399 34.599C20.5652 36.4224 8.65239 36.2362 3.08852 26.6012C-0.670453 20.0927 -0.471579 8.64347 9.50223 2.7119C17.1254 -1.82869 27.1836 -0.57069 33.247 5.75978C39.5832 12.3839 39.2167 24.7778 33.0308 29.5959C30.2292 31.787 26.069 29.656 26.099 26.4636L26.0678 25.423C24.1172 27.3551 21.5215 28.4882 18.6967 28.4882C13.1086 28.4882 8.18873 23.5672 8.18873 17.9848C8.18873 12.3423 13.1086 7.36928 18.6967 7.36928V7.36697ZM25.7256 17.5813C25.514 13.4916 22.4788 11.0288 18.8112 11.0288H18.6725C14.4452 11.0288 12.0969 14.3588 12.0969 18.134C12.0969 22.367 14.9331 25.0402 18.6551 25.0402C22.8095 25.0402 25.5371 22.0005 25.736 18.4045L25.7256 17.5813Z" fill="black"/>
</svg>
