<svg width="58" height="50" viewBox="0 0 58 50" fill="none" xmlns="http://www.w3.org/2000/svg">
<path d="M14.3571 0.27523C13.1186 2.20183 11.3755 5.43578 11.5131 5.57339C11.6048 5.66514 17.981 5.77982 25.6645 5.80275C38.4168 5.84862 39.6324 5.87156 39.7012 6.2156C39.747 6.44495 39.3342 7.29358 38.8296 8.1422C38.3021 9.01376 37.7745 9.93119 37.6599 10.1835C37.5223 10.4587 37.2929 10.9174 37.1094 11.2156C36.9489 11.5367 36.8571 11.8807 36.903 11.9725C37.0865 12.2706 50.0681 12.1789 50.0681 11.8807C50.0681 11.7431 49.77 11.1239 49.3801 10.5046C48.9901 9.90826 48.692 9.31193 48.692 9.19725C48.692 9.1055 48.3938 8.57798 48.0039 8.07339C47.6369 7.54587 47.3158 7.04128 47.3158 6.97248C47.3158 6.88073 46.8801 6.07798 46.3296 5.18349C45.7791 4.28899 45.2746 3.3945 45.1828 3.21101C45.0911 3.02752 44.8158 2.54587 44.5635 2.1789C44.3112 1.78899 43.9901 1.23853 43.8755 0.917431C43.7379 0.619266 43.4856 0.275229 43.3479 0.183486C43.1874 0.0917429 36.6507 0 28.8067 0C17.6369 0 14.4947 0.0688075 14.3571 0.27523ZM7.26996 12.6835C7.08648 12.7982 6.83418 13.0963 6.69657 13.3716C6.58189 13.6468 6.3984 14.0367 6.26079 14.2202C5.61859 15.2064 3.96721 18.0734 3.96721 18.211C3.96721 18.3028 3.78372 18.6468 3.53143 18.9908C3.30207 19.3349 2.52225 20.6422 1.78831 21.9037C1.05436 23.1651 0.366291 24.2202 0.251612 24.2661C-0.0694885 24.4037 0.0451907 25.0917 0.572714 25.9174C1.53602 27.4312 1.6507 27.6376 1.88005 28.1422C2.2929 29.0596 3.27914 30.5046 3.48556 30.5046C3.60024 30.5046 3.94427 30 4.26537 29.4037C5.38923 27.2706 8.09565 22.5688 8.80666 21.5138C9.05895 21.1697 9.24244 20.8257 9.24244 20.7569C9.24244 20.6881 10.0223 19.3349 10.9626 17.7523C11.903 16.1697 12.6828 14.8165 12.6828 14.7248C12.6828 14.656 12.958 14.1972 13.2791 13.7156C13.6232 13.2339 13.8296 12.7523 13.7379 12.6605C13.4856 12.4312 7.68281 12.4541 7.26996 12.6835ZM22.5911 12.6147C21.559 12.7294 21.559 12.7294 20.458 14.9083C20.1828 15.4817 19.6094 16.445 19.2195 17.0872C18.8067 17.7064 18.1415 18.8532 17.7287 19.6101C17.3158 20.367 16.8571 21.1468 16.7195 21.3303C16.5819 21.5138 16.2608 22.0413 16.0085 22.4771C15.2057 23.922 14.5406 25.0917 14.059 25.9174C13.2333 27.3165 12.6369 28.3486 9.97638 32.9817L7.36171 37.5L7.77455 38.3028C8.00391 38.7385 8.62317 39.8165 9.15069 40.711C9.65528 41.5826 10.1599 42.5459 10.2516 42.8211C10.3434 43.1193 10.5039 43.3486 10.5957 43.3486C10.6874 43.3486 10.9856 43.7844 11.2837 44.3119C11.559 44.8624 11.9947 45.5963 12.247 45.9862C12.4764 46.3532 12.8204 46.9725 13.0039 47.3624C13.1874 47.7294 13.6461 48.4862 14.036 49.0367L14.747 50H43.2103L43.6002 49.3119C43.8067 48.945 44.059 48.6239 44.1736 48.6239C44.2654 48.6239 44.3342 48.5092 44.3342 48.3716C44.3342 48.2339 44.6782 47.5229 45.114 46.8119C45.5268 46.1009 46.169 45 46.5131 44.3807C46.8571 43.7385 47.8434 42.0413 48.692 40.5963C53.9213 31.6743 53.8296 31.8578 53.4856 31.6284C53.3021 31.5138 52.8663 31.4679 52.4993 31.5367C52.1324 31.6055 50.7791 31.6514 49.4947 31.6514H47.1323L45.7103 34.1055C44.9305 35.4817 43.4168 38.0505 42.3617 39.8394C41.3067 41.6284 40.4351 43.1881 40.4351 43.3257C40.4351 44.0138 39.3801 44.0826 28.669 44.0596C22.7287 44.0367 17.8663 44.0138 17.8434 43.9679C17.247 43.211 14.2883 37.867 14.2883 37.5917C14.2883 37.3624 14.747 36.3991 15.3204 35.4817C15.8938 34.5413 16.3525 33.6927 16.3525 33.6239C16.3525 33.5321 16.6048 33.1193 16.9259 32.7064C17.247 32.2936 17.4993 31.8807 17.4993 31.789C17.4993 31.6972 18.0268 30.7569 18.6461 29.6789C19.2883 28.6009 19.7929 27.7064 19.7929 27.6606C19.7929 27.5688 22.4076 23.0963 23.3479 21.6055C23.692 21.078 24.2195 20.1606 24.5177 19.5642C24.8388 18.9679 25.6186 17.6376 26.2379 16.5826C26.8571 15.5275 27.3617 14.6101 27.3617 14.5183C27.3617 14.4495 27.6369 14.0367 27.958 13.6009C28.2791 13.1651 28.4856 12.7523 28.4168 12.6605C28.2333 12.4771 23.9901 12.4541 22.5911 12.6147Z" fill="black"/>
<path d="M32.4306 19.4723C32.1095 19.8392 31.582 20.642 31.2609 21.2383C30.504 22.7291 29.8159 23.9677 24.1279 33.7613C23.6233 34.5869 23.2334 35.3668 23.2334 35.4585C23.2334 35.5502 23.004 35.8713 22.7517 36.1466C22.1324 36.8117 22.3159 37.4998 23.0728 37.2934C23.348 37.2246 26.4214 37.1558 29.9077 37.1558H36.215L36.7196 36.1695C37.3618 34.931 38.1646 33.5319 38.6921 32.7521C39.4031 31.6741 39.1967 31.5824 35.8251 31.5594C32.8205 31.5365 32.7517 31.5365 32.6829 31.0319C32.637 30.7108 33.0728 29.7246 33.8068 28.509C34.4719 27.408 35.2058 26.1236 35.4352 25.642L35.848 24.7704H46.6279C53.3939 24.7704 57.4077 24.6787 57.4077 24.5411C57.4077 24.2888 54.7472 19.7704 54.2426 19.197C53.9215 18.8301 53.1646 18.8071 43.4627 18.8071L33.0269 18.8301L32.4306 19.4723Z" fill="black"/>
</svg>
