<svg width="121" height="79" viewBox="0 0 121 79" fill="none" xmlns="http://www.w3.org/2000/svg">
<ellipse cx="37.103" cy="23.0777" rx="15" ry="20" transform="rotate(-14.2548 37.103 23.0777)" fill="#EB3D3D"/>
<ellipse cx="18.5514" cy="56.3856" rx="15" ry="20" transform="rotate(11.0372 18.5514 56.3856)" fill="black"/>
<path d="M24.0596 63.6894C23.8861 64.379 23.9406 64.8023 24.223 64.9591C24.3395 65.0226 24.4956 65.0763 24.6912 65.1203L25.8531 59.9444L25.0528 59.7647C23.7028 62.2828 21.9445 63.4574 19.7778 63.2886C19.4674 63.2563 19.1611 63.2062 18.8587 63.1384C15.6651 62.3841 14.6224 59.497 15.7306 54.4772C16.6051 50.582 18.2231 48.4511 20.5847 48.0844C21.1622 48.0086 21.7622 48.0405 22.3848 48.1803C24.3946 48.6315 25.6226 49.944 26.0687 52.118C26.1606 52.6243 26.2227 53.1801 26.255 53.7852L27.1087 53.9768L28.1846 48.8097C27.7399 48.7099 27.4392 48.8011 27.2824 49.0836C27.2069 49.2534 27.1312 49.5073 27.0553 49.8453C25.7827 48.6068 24.177 47.7699 22.2383 47.3347C19.3035 46.6759 16.8288 47.2133 14.8142 48.9469C13.3761 50.1934 12.4414 51.7772 12.0102 53.6981C11.4911 56.0103 11.794 58.1148 12.9189 60.0114C14.1128 62.0169 15.9815 63.3052 18.5249 63.8761C20.3609 64.2696 22.2058 64.2074 24.0596 63.6894Z" fill="white"/>
<path d="M36.1929 14.4868C33.9679 15.2478 32.3211 16.6009 31.2525 18.5462C30.1271 20.6072 29.9715 22.8279 30.7856 25.2081C31.7235 27.9506 33.4266 29.7474 35.8948 30.5987C37.7502 31.2356 39.6525 31.2208 41.6015 30.5542C43.8093 29.7991 45.4359 28.4433 46.4814 26.4866C47.5836 24.4143 47.7277 22.1879 46.9136 19.8077C45.9461 16.979 44.2083 15.1651 41.7002 14.366C39.926 13.7976 38.0902 13.8379 36.1929 14.4868ZM41.4225 29.7774C39.2837 30.5089 37.5261 29.8481 36.1496 27.795C35.5138 26.8373 34.9363 25.5995 34.4172 24.0816C32.8421 19.4763 33.3328 16.6017 35.8892 15.4576C36.0558 15.3814 36.2167 15.3167 36.3719 15.2636C38.6832 14.4731 40.5697 15.3981 42.0315 18.0385C42.4817 18.8478 42.8985 19.813 43.2819 20.9342C44.7331 25.1772 44.4867 27.9491 42.5425 29.2498C42.2098 29.4599 41.8365 29.6358 41.4225 29.7774Z" fill="black"/>
<path d="M61.7806 24.0837V24.822H64.1595V29.7166C63.2845 30.5733 62.1635 31.0017 60.7963 31.0017C58.3171 31.0017 56.7767 29.6345 56.1752 26.9001C55.9564 25.9158 55.847 24.7491 55.847 23.4001C55.8653 18.296 57.5606 15.7348 60.933 15.7166C62.9564 15.7166 64.4056 16.6189 65.2806 18.4236C65.5905 19.0981 65.8549 19.9001 66.0736 20.8298H66.8666L66.7572 15.197L64.2416 15.7166C63.0202 15.1697 61.7351 14.8962 60.3861 14.8962C57.9981 14.8962 56.0202 15.6436 54.4525 17.1384C52.8666 18.6879 52.0736 20.7387 52.0736 23.2908C52.0736 26.4444 53.2038 28.796 55.4642 30.3455C56.9226 31.3298 58.5814 31.822 60.4408 31.822C61.9174 31.822 63.2572 31.5212 64.4603 30.9197L67.4408 31.5759V24.822H69.3002V24.0837H61.7806ZM87.627 31.5759C87.627 31.1567 87.4994 30.9197 87.2442 30.865C87.1713 30.8468 87.0711 30.8376 86.9435 30.8376H86.0958L79.6974 15.1697H78.002L71.9864 30.8376H70.2364V31.5759H75.213C75.213 31.1567 75.0854 30.9197 74.8302 30.865C74.739 30.8468 74.6388 30.8376 74.5294 30.8376H73.0802L75.0763 25.5876H80.5997L82.6505 30.8376H80.7638V31.5759H87.627ZM80.2716 24.7673H75.377L77.8106 18.3689L80.2716 24.7673ZM100.376 15.908H102.618V27.0095L92.7195 15.1697H88.3719V15.908H90.5594V30.8376H88.3719V31.5759H94.0047C93.8953 31.1202 93.6492 30.8741 93.2664 30.8376H91.6805V19.0525L102.29 31.7126L103.739 31.4392V15.908H105.927V15.1697H100.376V15.908Z" fill="black"/>
<path d="M40.5521 65.0182C40.4427 64.5624 40.1967 64.3163 39.8138 64.2799H38.3646V56.9791H45.7748V64.2799H43.5873V65.0182H51.2982C51.1524 64.5624 50.9154 64.3163 50.5873 64.2799H49.1381V49.3502H51.2982V48.6119H43.5873V49.3502H45.7748V56.1588H38.3646V49.3502H40.5521V48.6119H32.8138V49.3502H35.0013V64.2799H32.8138V65.0182H40.5521ZM66.2006 53.7525L66.0912 48.6119H52.7474V49.3502H54.9349V64.2799H52.7474V65.0182H66.0912L66.2006 59.8775H65.4896L64.9427 61.5728C64.4688 62.9947 63.7579 63.8515 62.8099 64.1432C62.5 64.2343 62.1628 64.2799 61.7982 64.2799H58.2982V56.9791H63.6849V56.1588H58.2982V49.3502H61.7982C63.2019 49.3502 64.1954 50.0794 64.7787 51.5377C64.8516 51.7018 64.9154 51.8749 64.9701 52.0572L65.4896 53.7525H66.2006ZM82.0599 52.3033C82.0599 50.7538 81.2579 49.6783 79.6537 49.0768C78.8151 48.7669 77.8308 48.6119 76.7006 48.6119H68.1967V49.3502H70.3842V64.2799H68.1967V65.0182H77.056C79.4987 65.0182 81.267 64.2799 82.3607 62.8033C82.9258 62.0377 83.2084 61.19 83.2084 60.2603C83.2084 58.4374 82.2878 57.1887 80.4467 56.5143C79.9545 56.332 79.4167 56.1952 78.8334 56.1041C80.3646 55.5937 81.3672 54.7187 81.8412 53.4791C81.987 53.0781 82.0599 52.6861 82.0599 52.3033ZM75.4427 49.3502C77.5026 49.3866 78.5417 50.4439 78.5599 52.5221C78.5599 54.0169 78.0222 55.0012 76.9467 55.4752C76.5456 55.6575 76.0899 55.7486 75.5795 55.7486H73.7474V49.3502H75.4427ZM76.2084 56.5143C77.7396 56.5143 78.7605 57.1978 79.2709 58.565C79.4532 59.039 79.5443 59.5676 79.5443 60.151C79.5443 62.0286 78.9245 63.2864 77.6849 63.9244C77.1927 64.1614 76.6276 64.2799 75.9896 64.2799H73.7474V56.5143H76.2084ZM101.474 65.0182C101.474 64.5989 101.346 64.3619 101.091 64.3072C101.018 64.289 100.918 64.2799 100.79 64.2799H99.9427L93.5443 48.6119H91.849L85.8334 64.2799H84.0834V65.0182H89.0599C89.0599 64.5989 88.9323 64.3619 88.6771 64.3072C88.586 64.289 88.4857 64.2799 88.3763 64.2799H86.9271L88.9232 59.0299H94.4467L96.4974 64.2799H94.6107V65.0182H101.474ZM94.1185 58.2096H89.224L91.6576 51.8111L94.1185 58.2096ZM113.943 49.3502H116.185V60.4518L106.286 48.6119H101.939V49.3502H104.126V64.2799H101.939V65.0182H107.572C107.462 64.5624 107.216 64.3163 106.833 64.2799H105.247V52.4947L115.857 65.1549L117.306 64.8814V49.3502H119.494V48.6119H113.943V49.3502Z" fill="black"/>
</svg>
